<?xml version="1.0" encoding="UTF-8"?>
<svg id="Layer_1" data-name="Layer 1" xmlns="http://www.w3.org/2000/svg" viewBox="0 0 428.56 371.45">
  <defs>
    <style>
      .cls-1 {
        fill: #05f;
      }
    </style>
  </defs>
  <path class="cls-1" d="M128.58,287.44c-4.77,27.9,17.35,44.44,41.91,53.27-38.37,10.6-75.01,21.43-113.29,29.59-18.23,3.89-36.25-2.46-47.08-16.2s-13.94-34.34-4.51-50.76L110.4,121.34c25.27-19.57,56.65-32.69,81.9-11.65,7.4,6.16,13.17,13.58,18.76,22.34l-70.47,122.45c-5.97,10.38-10.05,21.43-12,32.96Z"/>
  <path class="cls-1" d="M182.3,337.03c-12.34-2.27-24.06-7.35-34.01-14.94-24.53-18.73-13.56-48.06,2-73.19l124.22-32.93c47.42-12.58,94.84,5.87,123.21,45.03,8.76,12.08,15.03,24.58,22.89,37.25,13.77,22.27,9.55,49.92-11.93,64.98-19.83,13.91-51.05,10.29-64.15-11.91l-29.97-50.76-132.26,36.44v.02Z"/>
  <path class="cls-1" d="M216.76,130.79c-15.27-26.32-36.37-42.55-66.44-36.11-11.17,2.39-20.36,7.9-31.79,12.77l46.25-80.28C174.59,10.18,193.45.8,211.32.06c20.14-.86,37.8,7.3,50.45,23.48l101.83,176.67c-35.63-15.68-73-16.37-109.61-4.84l-37.21-64.6-.02.02Z"/>
</svg>